<svg width="21" height="21" viewBox="0 0 21 21" fill="none" xmlns="http://www.w3.org/2000/svg">
<g clip-path="url(#clip0_1_41)">
<path d="M10.5 19.25C15.3325 19.25 19.25 15.3325 19.25 10.5C19.25 5.66751 15.3325 1.75 10.5 1.75C5.66751 1.75 1.75 5.66751 1.75 10.5C1.75 15.3325 5.66751 19.25 10.5 19.25Z" stroke="#476F82" stroke-width="2" stroke-linecap="round" stroke-linejoin="round"/>
<path d="M7.95374 7.87499C8.15945 7.2902 8.56549 6.79709 9.09995 6.48299C9.6344 6.16888 10.2628 6.05407 10.8738 6.15887C11.4848 6.26367 12.039 6.58133 12.4382 7.05558C12.8374 7.52983 13.0559 8.13008 13.055 8.74999C13.055 10.5 10.43 11.375 10.43 11.375" stroke="#476F82" stroke-width="2" stroke-linecap="round" stroke-linejoin="round"/>
<path d="M10.5 14.875H10.5088" stroke="#476F82" stroke-width="2" stroke-linecap="round" stroke-linejoin="round"/>
</g>
<defs>
<clipPath id="clip0_1_41">
<rect width="21" height="21" fill="white"/>
</clipPath>
</defs>
</svg>
