<svg width="21" height="20" viewBox="0 0 21 20" fill="none" xmlns="http://www.w3.org/2000/svg">
<path d="M18.375 1.66667L16.625 3.33334M9.96625 9.675L13.5625 6.25M13.5625 6.25L16.1875 8.75L19.25 5.83334L16.625 3.33334M13.5625 6.25L16.625 3.33334M9.96625 9.675C10.4181 10.0996 10.7772 10.605 11.023 11.1623C11.2689 11.7196 11.3965 12.3177 11.3987 12.9222C11.4008 13.5267 11.2773 14.1256 11.0354 14.6844C10.7935 15.2433 10.4379 15.751 9.98913 16.1785C9.54033 16.6059 9.00719 16.9445 8.42039 17.1749C7.8336 17.4053 7.20475 17.5229 6.57006 17.5209C5.93536 17.5188 5.30735 17.3973 4.7222 17.1631C4.13704 16.929 3.60629 16.587 3.1605 16.1567C2.28387 15.2922 1.79879 14.1345 1.80976 12.9327C1.82072 11.731 2.32685 10.5815 3.21913 9.73167C4.1114 8.88188 5.31844 8.39986 6.58026 8.38942C7.84208 8.37897 9.05773 8.84095 9.96538 9.67584L9.96625 9.675Z" stroke="#476F82" stroke-width="2" stroke-linecap="round" stroke-linejoin="round"/>
</svg>
