<svg width="28" height="26" viewBox="0 0 28 26" fill="none" xmlns="http://www.w3.org/2000/svg">
<path d="M22.1667 11.9167H5.83333C4.54467 11.9167 3.5 12.8867 3.5 14.0833V21.6667C3.5 22.8633 4.54467 23.8333 5.83333 23.8333H22.1667C23.4553 23.8333 24.5 22.8633 24.5 21.6667V14.0833C24.5 12.8867 23.4553 11.9167 22.1667 11.9167Z" stroke="#AEC2CD" stroke-width="2" stroke-linecap="round" stroke-linejoin="round"/>
<path d="M8.16667 11.9167V7.58333C8.16667 6.14674 8.78125 4.76899 9.87521 3.75317C10.9692 2.73735 12.4529 2.16666 14 2.16666C15.5471 2.16666 17.0308 2.73735 18.1248 3.75317C19.2188 4.76899 19.8333 6.14674 19.8333 7.58333V11.9167" stroke="#AEC2CD" stroke-width="2" stroke-linecap="round" stroke-linejoin="round"/>
</svg>
